<svg width="129" height="42" viewBox="0 0 129 42" fill="none" xmlns="http://www.w3.org/2000/svg">
<path d="M71.1257 17.395H65.9653C65.871 16.7296 65.6786 16.1386 65.3879 15.6219C65.0973 15.0974 64.7242 14.6512 64.2687 14.2833C63.8131 13.9154 63.2868 13.6336 62.6899 13.4378C62.1008 13.2421 61.4607 13.1443 60.7695 13.1443C59.5206 13.1443 58.4327 13.4535 57.5059 14.0719C56.5791 14.6825 55.8604 15.575 55.3498 16.7492C54.8393 17.9156 54.584 19.3325 54.584 20.9999C54.584 22.7143 54.8393 24.1547 55.3498 25.3211C55.8682 26.4875 56.5908 27.3682 57.5177 27.9631C58.4445 28.5581 59.5167 28.8555 60.7341 28.8555C61.4175 28.8555 62.0498 28.7655 62.631 28.5855C63.2201 28.4054 63.7424 28.1432 64.198 27.7987C64.6535 27.4465 65.0306 27.0198 65.329 26.5188C65.6354 26.0178 65.8474 25.4463 65.9653 24.8044L71.1257 24.8279C70.9922 25.9317 70.6583 26.9963 70.1242 28.0218C69.598 29.0395 68.8871 29.9515 67.9917 30.7578C67.1042 31.5563 66.0438 32.1904 64.8106 32.6601C63.5853 33.1219 62.199 33.3529 60.6516 33.3529C58.4995 33.3529 56.5751 32.8675 54.8785 31.8968C53.1898 30.9261 51.8545 29.5209 50.8727 27.6813C49.8988 25.8417 49.4118 23.6145 49.4118 20.9999C49.4118 18.3775 49.9066 16.1464 50.8963 14.3068C51.886 12.4671 53.2291 11.0659 54.9257 10.103C56.6223 9.13232 58.5309 8.64697 60.6516 8.64697C62.0498 8.64697 63.3458 8.84268 64.5396 9.23409C65.7414 9.6255 66.8057 10.197 67.7325 10.9485C68.6594 11.6922 69.4134 12.6041 69.9946 13.6844C70.5837 14.7647 70.9607 16.0016 71.1257 17.395Z" fill="#F0F9FF"/>
<path d="M78.8211 33.0241H73.3543L81.6841 8.97576H88.2584L96.5763 33.0241H91.1096L85.0655 14.4712H84.877L78.8211 33.0241ZM78.4794 23.5715H91.3923V27.5404H78.4794V23.5715Z" fill="#F0F9FF"/>
<path d="M104.914 8.97576V33.0241H99.8123V8.97576H104.914Z" fill="#F0F9FF"/>
<path d="M109.443 33.0241V8.97576H118.963C120.785 8.97576 122.34 9.30063 123.628 9.95037C124.924 10.5923 125.91 11.5043 126.586 12.6863C127.269 13.8606 127.611 15.2423 127.611 16.8314C127.611 18.4283 127.265 19.8022 126.574 20.9529C125.883 22.0959 124.881 22.9726 123.569 23.5832C122.265 24.1938 120.687 24.4991 118.833 24.4991H112.459V20.4128H118.008C118.982 20.4128 119.791 20.2797 120.435 20.0136C121.079 19.7474 121.559 19.3482 121.873 18.8158C122.195 18.2835 122.356 17.622 122.356 16.8314C122.356 16.0329 122.195 15.3597 121.873 14.8117C121.559 14.2637 121.076 13.8488 120.424 13.567C119.78 13.2774 118.967 13.1325 117.985 13.1325H114.544V33.0241H109.443ZM122.474 22.0802L128.471 33.0241H122.839L116.972 22.0802H122.474Z" fill="#F0F9FF"/>
<g clip-path="url(#clip0_102_2)">
<path d="M0 20.9754C0 3.75298 3.75298 0 20.9754 0C38.1979 0 41.9509 3.75298 41.9509 20.9754C41.9509 38.1979 38.1979 41.9509 20.9754 41.9509C3.75298 41.9509 0 38.1991 0 20.9754Z" fill="#F0F9FF"/>
<path fill-rule="evenodd" clip-rule="evenodd" d="M29.9981 17.1611C32.4898 17.1611 34.5088 19.1813 34.5088 21.6718C34.5088 24.1624 32.4886 26.1825 29.9981 26.1825C27.5076 26.1825 25.4874 28.2027 25.4874 30.6932C25.4874 33.1838 23.4672 35.2039 20.9767 35.2039C18.4861 35.2039 16.466 33.1838 16.466 30.6932C16.466 28.2027 18.4861 26.1825 20.9767 26.1825C23.4672 26.1825 25.4874 24.1624 25.4874 21.6718C25.4874 19.1813 27.5076 17.1611 29.9981 17.1611Z" fill="black"/>
<path fill-rule="evenodd" clip-rule="evenodd" d="M20.9754 8.13965C23.4672 8.13965 25.4861 10.1598 25.4861 12.6504C25.4861 15.1409 23.466 17.1611 20.9754 17.1611C18.4849 17.1611 16.4647 19.1812 16.4647 21.6718C16.4647 24.1623 14.4446 26.1825 11.954 26.1825C9.4635 26.1825 7.44333 24.1623 7.44333 21.6718C7.44333 19.1812 9.4635 17.1611 11.954 17.1611C14.4446 17.1611 16.4647 15.1409 16.4647 12.6504C16.4647 10.1598 18.4849 8.13965 20.9754 8.13965Z" fill="black"/>
<path fill-rule="evenodd" clip-rule="evenodd" d="M11.954 15.8395C13.7163 15.8395 15.1433 14.4113 15.1433 12.6502C15.1433 10.8892 13.7151 9.46094 11.954 9.46094C10.193 9.46094 8.76474 10.8892 8.76474 12.6502C8.76474 14.4113 10.193 15.8395 11.954 15.8395ZM29.9981 15.8395C31.7604 15.8395 33.1874 14.4113 33.1874 12.6502C33.1874 10.8892 31.7591 9.46094 29.9981 9.46094C28.237 9.46094 26.8088 10.8892 26.8088 12.6502C26.8088 14.4113 28.237 15.8395 29.9981 15.8395ZM20.9754 18.4823C19.2132 18.4823 17.7861 19.9106 17.7861 21.6716C17.7861 23.4327 19.2144 24.8609 20.9754 24.8609C22.7365 24.8609 24.1647 23.4327 24.1647 21.6716C24.1647 19.9106 22.7365 18.4823 20.9754 18.4823ZM11.954 33.8836C13.7163 33.8836 15.1433 32.4553 15.1433 30.6943C15.1433 28.9332 13.7151 27.505 11.954 27.505C10.193 27.505 8.76474 28.9332 8.76474 30.6943C8.76474 32.4553 10.193 33.8836 11.954 33.8836ZM29.9981 33.8836C31.7604 33.8836 33.1874 32.4553 33.1874 30.6943C33.1874 28.9332 31.7591 27.505 29.9981 27.505C28.237 27.505 26.8088 28.9332 26.8088 30.6943C26.8088 32.4553 28.237 33.8836 29.9981 33.8836Z" fill="black"/>
</g>
<defs>
<clipPath id="clip0_102_2">
<rect width="42" height="42" fill="white"/>
</clipPath>
</defs>
</svg>
