<svg width="104" height="34" viewBox="0 0 104 34" fill="none" xmlns="http://www.w3.org/2000/svg">
<path d="M57.5779 14.0817H53.4004C53.3241 13.5431 53.1684 13.0646 52.9331 12.6464C52.6978 12.2218 52.3958 11.8606 52.027 11.5627C51.6582 11.2649 51.2322 11.0368 50.749 10.8783C50.2721 10.7199 49.7539 10.6407 49.1943 10.6407C48.1833 10.6407 47.3027 10.891 46.5524 11.3916C45.8021 11.8859 45.2203 12.6084 44.807 13.5589C44.3937 14.5032 44.187 15.6502 44.187 17C44.187 18.3878 44.3937 19.5539 44.807 20.4981C45.2266 21.4423 45.8116 22.1553 46.5619 22.6369C47.3122 23.1185 48.1801 23.3593 49.1657 23.3593C49.7189 23.3593 50.2307 23.2864 50.7013 23.1407C51.1782 22.9949 51.601 22.7826 51.9698 22.5038C52.3386 22.2186 52.6438 21.8733 52.8854 21.4677C53.1334 21.0621 53.3051 20.5995 53.4004 20.0798L57.5779 20.0989C57.4698 20.9924 57.1996 21.8542 56.7672 22.6844C56.3412 23.5082 55.7658 24.2465 55.0409 24.8992C54.3224 25.5456 53.464 26.0589 52.4657 26.4392C51.4738 26.8131 50.3516 27 49.0989 27C47.3567 27 45.7989 26.6071 44.4255 25.8213C43.0584 25.0355 41.9775 23.898 41.1827 22.4087C40.3942 20.9195 40 19.1166 40 17C40 14.8771 40.4006 13.071 41.2017 11.5817C42.0029 10.0925 43.0902 8.95818 44.4636 8.17871C45.8371 7.3929 47.3822 7 49.0989 7C50.2307 7 51.2799 7.15843 52.2464 7.47529C53.2192 7.79214 54.0808 8.25475 54.8311 8.86312C55.5814 9.46515 56.1918 10.2034 56.6623 11.0779C57.1392 11.9525 57.4444 12.9537 57.5779 14.0817Z" fill="#F0F9FF"/>
<path d="M63.8076 26.7338H59.3821L66.1252 7.26616H71.4472L78.1808 26.7338H73.7554L68.8625 11.7148H68.7099L63.8076 26.7338ZM63.531 19.0817H73.9843V22.2947H63.531V19.0817Z" fill="#F0F9FF"/>
<path d="M84.9303 7.26616V26.7338H80.8005V7.26616H84.9303Z" fill="#F0F9FF"/>
<path d="M88.5967 26.7338V7.26616H96.3031C97.7783 7.26616 99.0372 7.52915 100.08 8.05513C101.129 8.57478 101.927 9.31305 102.474 10.27C103.027 11.2205 103.304 12.339 103.304 13.6255C103.304 14.9183 103.024 16.0304 102.464 16.962C101.905 17.8872 101.094 18.597 100.032 19.0913C98.9768 19.5856 97.6988 19.8327 96.1982 19.8327H91.0383V16.5247H95.5305C96.319 16.5247 96.9739 16.417 97.4953 16.2015C98.0167 15.9861 98.4046 15.6629 98.6589 15.2319C98.9196 14.801 99.0499 14.2655 99.0499 13.6255C99.0499 12.9791 98.9196 12.4341 98.6589 11.9905C98.4046 11.5469 98.0135 11.211 97.4858 10.9829C96.9644 10.7484 96.3063 10.6312 95.5115 10.6312H92.7265V26.7338H88.5967ZM99.1453 17.8745L104 26.7338H99.441L94.6912 17.8745H99.1453Z" fill="#F0F9FF"/>
<g clip-path="url(#clip0_1_18)">
<path d="M0 16.9801C0 3.03813 3.03813 0 16.9801 0C30.9221 0 33.9602 3.03813 33.9602 16.9801C33.9602 30.9221 30.9221 33.9602 16.9801 33.9602C3.03813 33.9602 0 30.9231 0 16.9801Z" fill="#4A7EBB"/>
<path fill-rule="evenodd" clip-rule="evenodd" d="M24.2842 13.8923C26.3013 13.8923 27.9357 15.5277 27.9357 17.5438C27.9357 19.5599 26.3003 21.1953 24.2842 21.1953C22.268 21.1953 20.6326 22.8307 20.6326 24.8468C20.6326 26.863 18.9973 28.4984 16.9811 28.4984C14.965 28.4984 13.3296 26.863 13.3296 24.8468C13.3296 22.8307 14.965 21.1953 16.9811 21.1953C18.9973 21.1953 20.6326 19.5599 20.6326 17.5438C20.6326 15.5277 22.268 13.8923 24.2842 13.8923Z" fill="#F4A367"/>
<path fill-rule="evenodd" clip-rule="evenodd" d="M16.9801 6.58923C18.9973 6.58923 20.6316 8.22461 20.6316 10.2408C20.6316 12.2569 18.9963 13.8923 16.9801 13.8923C14.964 13.8923 13.3286 15.5277 13.3286 17.5438C13.3286 19.5599 11.6932 21.1953 9.67708 21.1953C7.66094 21.1953 6.02556 19.5599 6.02556 17.5438C6.02556 15.5277 7.66094 13.8923 9.67708 13.8923C11.6932 13.8923 13.3286 12.2569 13.3286 10.2408C13.3286 8.22461 14.964 6.58923 16.9801 6.58923Z" fill="#F4A367"/>
<path fill-rule="evenodd" clip-rule="evenodd" d="M9.67707 12.8226C11.1037 12.8226 12.2589 11.6664 12.2589 10.2408C12.2589 8.81515 11.1027 7.65895 9.67707 7.65895C8.25146 7.65895 7.09526 8.81515 7.09526 10.2408C7.09526 11.6664 8.25146 12.8226 9.67707 12.8226ZM24.2842 12.8226C25.7108 12.8226 26.866 11.6664 26.866 10.2408C26.866 8.81515 25.7098 7.65895 24.2842 7.65895C22.8585 7.65895 21.7023 8.81515 21.7023 10.2408C21.7023 11.6664 22.8585 12.8226 24.2842 12.8226ZM16.9801 14.962C15.5535 14.962 14.3983 16.1182 14.3983 17.5438C14.3983 18.9694 15.5545 20.1256 16.9801 20.1256C18.4057 20.1256 19.5619 18.9694 19.5619 17.5438C19.5619 16.1182 18.4057 14.962 16.9801 14.962ZM9.67707 27.4297C11.1037 27.4297 12.2589 26.2735 12.2589 24.8478C12.2589 23.4222 11.1027 22.266 9.67707 22.266C8.25146 22.266 7.09526 23.4222 7.09526 24.8478C7.09526 26.2735 8.25146 27.4297 9.67707 27.4297ZM24.2842 27.4297C25.7108 27.4297 26.866 26.2735 26.866 24.8478C26.866 23.4222 25.7098 22.266 24.2842 22.266C22.8585 22.266 21.7023 23.4222 21.7023 24.8478C21.7023 26.2735 22.8585 27.4297 24.2842 27.4297Z" fill="white"/>
</g>
<defs>
<clipPath id="clip0_1_18">
<rect width="34" height="34" fill="white"/>
</clipPath>
</defs>
</svg>
